<svg width="64" height="64" viewBox="0 0 64 64" fill="none" xmlns="http://www.w3.org/2000/svg">
<path d="M0 8C0 3.58172 3.58172 0 8 0H56C60.4183 0 64 3.58172 64 8V56C64 60.4183 60.4183 64 56 64H8C3.58172 64 0 60.4183 0 56V8Z" fill="#2A4628"/>
<path fill-rule="evenodd" clip-rule="evenodd" d="M29 17C29 15.6193 30.1193 14.5 31.5 14.5C32.8807 14.5 34 15.6193 34 17V18.2428C37.2221 19.084 39.6 22.0143 39.6 25.5C39.6 26.8807 38.4807 28 37.1 28C35.7193 28 34.6 26.8807 34.6 25.5C34.6 24.1193 33.4807 23 32.1 23C30.7193 23 29.6 24.1193 29.6 25.5C29.6 26.8807 30.7193 28 32.1 28C32.1372 28 32.1743 28.0008 32.2112 28.0024C37.0842 28.1146 41 32.1 41 37C41 41.2832 38.008 44.8675 34 45.777V47C34 48.3807 32.8807 49.5 31.5 49.5C30.1193 49.5 29 48.3807 29 47V45.4879C25.5044 44.2524 23 40.9187 23 37C23 35.6193 24.1193 34.5 25.5 34.5C26.8807 34.5 28 35.6193 28 37C28 39.2091 29.7909 41 32 41C34.2091 41 36 39.2091 36 37C36 34.7909 34.2091 33 32 33C31.9543 33 31.9089 32.9988 31.8638 32.9964C27.8309 32.8716 24.6 29.5631 24.6 25.5C24.6 22.4634 26.4047 19.8482 29 18.6686V17Z" fill="#20A815"/>
</svg>
