<svg width="64" height="64" viewBox="0 0 64 64" fill="none" xmlns="http://www.w3.org/2000/svg">
<path d="M0 8.00086C0 3.58211 3.58211 0 8.00087 0H55.9994C60.4181 0 64.0002 3.58211 64.0002 8.00087V55.9994C64.0002 60.4181 60.4181 64.0002 55.9994 64.0002H8.00087C3.58211 64.0002 0 60.4181 0 55.9993V8.00086Z" fill="#2C4D54"/>
<path fill-rule="evenodd" clip-rule="evenodd" d="M35.0002 22.5C35.0002 21.1193 36.1195 20 37.5002 20H47.5002C47.6728 20 47.8413 20.0175 48.0041 20.0508C49.1433 20.2839 50.0002 21.2919 50.0002 22.5L50.0002 32.5C50.0002 33.8807 48.8809 35 47.5002 35C46.1195 35 45.0002 33.8807 45.0002 32.5V28.8524L36.8372 37.6957C36.0108 38.591 34.6593 38.7601 33.6377 38.0961L25.6518 32.9053L18.5403 42.9451C17.7422 44.0717 16.1819 44.3381 15.0552 43.5401C13.9285 42.742 13.6621 41.1817 14.4601 40.055L22.9601 28.055C23.7358 26.9599 25.2376 26.6726 26.3627 27.4039L34.594 32.7543L41.7518 25H37.5002C36.1195 25 35.0002 23.8807 35.0002 22.5Z" fill="#76D5E8"/>
</svg>
